<mxfile host="65bd71144e">
    <diagram id="oSkyYTPFxHVlRpGPPag0" name="Page-1">
        <mxGraphModel dx="796" dy="1574" grid="1" gridSize="10" guides="1" tooltips="1" connect="1" arrows="1" fold="1" page="1" pageScale="1" pageWidth="850" pageHeight="1100" math="0" shadow="0">
            <root>
                <mxCell id="0"/>
                <mxCell id="1" parent="0"/>
                <mxCell id="27" value="SQL(Structured Query Language)" style="swimlane;whiteSpace=wrap;html=1;" parent="1" vertex="1">
                    <mxGeometry x="90" y="10" width="670" height="470" as="geometry"/>
                </mxCell>
                <mxCell id="28" value="&lt;h1&gt;SQL&lt;/h1&gt;&lt;p&gt;A Linguagem de consulta estruturada (SQL) é uma linguagem de programação para armazenar e processar informações em um banco de dados relacional.&lt;/p&gt;" style="text;html=1;strokeColor=none;fillColor=none;spacing=5;spacingTop=-20;whiteSpace=wrap;overflow=hidden;rounded=0;" parent="27" vertex="1">
                    <mxGeometry x="10" y="30" width="160" height="140" as="geometry"/>
                </mxCell>
                <mxCell id="29" value="" style="edgeStyle=none;html=1;" parent="27" source="35" target="37" edge="1">
                    <mxGeometry relative="1" as="geometry"/>
                </mxCell>
                <mxCell id="30" value="" style="edgeStyle=none;html=1;" parent="27" source="35" target="39" edge="1">
                    <mxGeometry relative="1" as="geometry"/>
                </mxCell>
                <mxCell id="31" value="" style="edgeStyle=none;html=1;" parent="27" source="35" target="39" edge="1">
                    <mxGeometry relative="1" as="geometry"/>
                </mxCell>
                <mxCell id="32" style="edgeStyle=none;html=1;exitX=0.5;exitY=1;exitDx=0;exitDy=0;entryX=0.5;entryY=0;entryDx=0;entryDy=0;" parent="27" source="35" target="41" edge="1">
                    <mxGeometry relative="1" as="geometry"/>
                </mxCell>
                <mxCell id="33" style="edgeStyle=none;html=1;entryX=0.5;entryY=0;entryDx=0;entryDy=0;" parent="27" source="35" target="43" edge="1">
                    <mxGeometry relative="1" as="geometry"/>
                </mxCell>
                <mxCell id="34" style="edgeStyle=none;html=1;exitX=0.75;exitY=1;exitDx=0;exitDy=0;entryX=0.25;entryY=0;entryDx=0;entryDy=0;" parent="27" source="35" target="45" edge="1">
                    <mxGeometry relative="1" as="geometry"/>
                </mxCell>
                <mxCell id="35" value="SQL" style="rounded=1;whiteSpace=wrap;html=1;fillColor=#0050ef;strokeColor=#001DBC;fontColor=#ffffff;" parent="27" vertex="1">
                    <mxGeometry x="250" y="40" width="380" height="60" as="geometry"/>
                </mxCell>
                <mxCell id="36" value="" style="edgeStyle=none;html=1;" parent="27" source="37" target="47" edge="1">
                    <mxGeometry relative="1" as="geometry"/>
                </mxCell>
                <mxCell id="37" value="DDL" style="rounded=1;whiteSpace=wrap;html=1;fillColor=#6a00ff;strokeColor=#3700CC;fontColor=#ffffff;" parent="27" vertex="1">
                    <mxGeometry x="250" y="130" width="60" height="60" as="geometry"/>
                </mxCell>
                <mxCell id="38" value="" style="edgeStyle=none;html=1;" parent="27" source="39" target="48" edge="1">
                    <mxGeometry relative="1" as="geometry"/>
                </mxCell>
                <mxCell id="39" value="DML" style="rounded=1;whiteSpace=wrap;html=1;fillColor=#6a00ff;strokeColor=#3700CC;fontColor=#ffffff;" parent="27" vertex="1">
                    <mxGeometry x="335" y="130" width="60" height="60" as="geometry"/>
                </mxCell>
                <mxCell id="40" value="" style="edgeStyle=none;html=1;" parent="27" source="41" target="46" edge="1">
                    <mxGeometry relative="1" as="geometry"/>
                </mxCell>
                <mxCell id="41" value="DQL" style="rounded=1;whiteSpace=wrap;html=1;fillColor=#6a00ff;strokeColor=#3700CC;fontColor=#ffffff;" parent="27" vertex="1">
                    <mxGeometry x="420" y="130" width="60" height="60" as="geometry"/>
                </mxCell>
                <mxCell id="42" value="" style="edgeStyle=none;html=1;" parent="27" source="43" target="49" edge="1">
                    <mxGeometry relative="1" as="geometry"/>
                </mxCell>
                <mxCell id="43" value="DCL" style="rounded=1;whiteSpace=wrap;html=1;fillColor=#6a00ff;strokeColor=#3700CC;fontColor=#ffffff;" parent="27" vertex="1">
                    <mxGeometry x="500" y="130" width="60" height="60" as="geometry"/>
                </mxCell>
                <mxCell id="44" value="" style="edgeStyle=none;html=1;" parent="27" source="45" target="50" edge="1">
                    <mxGeometry relative="1" as="geometry"/>
                </mxCell>
                <mxCell id="45" value="DTL" style="rounded=1;whiteSpace=wrap;html=1;fillColor=#6a00ff;strokeColor=#3700CC;fontColor=#ffffff;" parent="27" vertex="1">
                    <mxGeometry x="570" y="130" width="60" height="60" as="geometry"/>
                </mxCell>
                <mxCell id="46" value="SELECT" style="rounded=1;whiteSpace=wrap;html=1;fillColor=#008a00;strokeColor=#005700;fontColor=#ffffff;" parent="27" vertex="1">
                    <mxGeometry x="420" y="220" width="60" height="60" as="geometry"/>
                </mxCell>
                <mxCell id="47" value="CREATE&lt;br&gt;ALTER&lt;br&gt;DROP" style="rounded=1;whiteSpace=wrap;html=1;fillColor=#008a00;strokeColor=#005700;fontColor=#ffffff;" parent="27" vertex="1">
                    <mxGeometry x="250" y="220" width="60" height="60" as="geometry"/>
                </mxCell>
                <mxCell id="48" value="INSERT&lt;br&gt;UPDATE&lt;br&gt;DELETE" style="rounded=1;whiteSpace=wrap;html=1;fillColor=#008a00;strokeColor=#005700;fontColor=#ffffff;" parent="27" vertex="1">
                    <mxGeometry x="335" y="220" width="60" height="60" as="geometry"/>
                </mxCell>
                <mxCell id="49" value="GRANT&lt;br&gt;REVOKE" style="rounded=1;whiteSpace=wrap;html=1;fillColor=#008a00;strokeColor=#005700;fontColor=#ffffff;" parent="27" vertex="1">
                    <mxGeometry x="500" y="220" width="60" height="60" as="geometry"/>
                </mxCell>
                <mxCell id="50" value="BEGIN&lt;br&gt;COMMIT&lt;br&gt;ROLLBACK" style="rounded=1;whiteSpace=wrap;html=1;fillColor=#008a00;strokeColor=#005700;fontColor=#ffffff;" parent="27" vertex="1">
                    <mxGeometry x="570" y="220" width="70" height="60" as="geometry"/>
                </mxCell>
                <mxCell id="51" value="&lt;h1&gt;DDL&lt;/h1&gt;&lt;p&gt;Data Definition Language - Linguagem de Definição de Dados.&lt;/p&gt;" style="text;html=1;strokeColor=none;fillColor=none;spacing=5;spacingTop=-20;whiteSpace=wrap;overflow=hidden;rounded=0;" vertex="1" parent="27">
                    <mxGeometry x="10" y="190" width="190" height="120" as="geometry"/>
                </mxCell>
                <mxCell id="52" value="&lt;h1&gt;DML&lt;/h1&gt;&lt;p&gt;Data Manipulation Language - Linguagem de Manipulação de Dados.&lt;/p&gt;" style="text;html=1;strokeColor=none;fillColor=none;spacing=5;spacingTop=-20;whiteSpace=wrap;overflow=hidden;rounded=0;" vertex="1" parent="27">
                    <mxGeometry x="10" y="320" width="190" height="120" as="geometry"/>
                </mxCell>
                <mxCell id="53" value="&lt;h1&gt;DQL&lt;/h1&gt;&lt;p&gt;Data Query Language - Linguagem de Consulta de Dados.&lt;/p&gt;" style="text;html=1;strokeColor=none;fillColor=none;spacing=5;spacingTop=-20;whiteSpace=wrap;overflow=hidden;rounded=0;" vertex="1" parent="27">
                    <mxGeometry x="185" y="310" width="190" height="120" as="geometry"/>
                </mxCell>
                <mxCell id="54" value="&lt;h1&gt;DCL&lt;/h1&gt;&lt;p&gt;Data Control Language - Linguagem de Controle de Dados.&lt;/p&gt;" style="text;html=1;strokeColor=none;fillColor=none;spacing=5;spacingTop=-20;whiteSpace=wrap;overflow=hidden;rounded=0;" vertex="1" parent="27">
                    <mxGeometry x="335" y="310" width="190" height="120" as="geometry"/>
                </mxCell>
                <mxCell id="55" value="&lt;h1&gt;DTL&lt;/h1&gt;&lt;p&gt;Data Transaction Language - Linguagem de Transação de Dados.&lt;/p&gt;" style="text;html=1;strokeColor=none;fillColor=none;spacing=5;spacingTop=-20;whiteSpace=wrap;overflow=hidden;rounded=0;" vertex="1" parent="27">
                    <mxGeometry x="490" y="310" width="190" height="120" as="geometry"/>
                </mxCell>
            </root>
        </mxGraphModel>
    </diagram>
</mxfile>